<svg width="344" height="62" viewBox="0 0 344 62" fill="none" xmlns="http://www.w3.org/2000/svg">
<g clip-path="url(#clip0_2_515)">
<path d="M89.7573 13.8957V18.4499C86.7879 16.7162 83.3237 15.707 79.6251 15.707C68.6073 15.707 59.6732 24.5827 59.6732 35.5284C59.6732 46.4742 68.6073 55.3498 79.6251 55.3498C83.3237 55.3498 86.7879 54.3406 89.7573 52.6069V55.3757H99.7592V13.8957H89.7573ZM79.6251 45.5685C74.025 45.5685 69.4929 41.066 69.4929 35.5025C69.4929 29.9391 74.025 25.4366 79.6251 25.4366C85.2251 25.4366 89.7573 29.9391 89.7573 35.5025C89.7573 41.066 85.2251 45.5685 79.6251 45.5685Z" fill="#1245EB"/>
<path d="M166.465 13.8957H156.541V55.0651H166.465V13.8957Z" fill="#1245EB"/>
<path d="M122.68 27.3514C123.123 27.2738 123.566 27.2479 124.035 27.2479V17.4149H114.945V13.8957H104.943L104.995 36.4858C104.995 43.6536 109.006 49.864 114.918 53.0727C117.601 54.5217 120.701 55.3498 123.983 55.3498H124.009V45.3097C118.982 45.3097 114.918 41.273 114.918 36.2788V27.3514H122.68Z" fill="#1245EB"/>
<path d="M150.811 13.8957V23.5994C146.748 23.5994 143.205 25.8506 141.356 29.1369C140.679 30.379 140.21 31.7504 140.08 33.2254C140.054 33.5877 140.028 33.9499 140.028 34.3122C140.028 34.6745 140.054 35.0368 140.08 35.399V55.3498H130.078V33.6136C130.078 32.3715 130.182 31.1553 130.416 29.9908C131.041 26.601 132.552 23.5217 134.662 20.96C136.173 19.1486 137.996 17.596 140.08 16.4057C142.424 15.0601 145.055 14.1803 147.868 13.8698H150.811V13.8957Z" fill="#1245EB"/>
<path d="M228.587 3.93326C219.627 3.93326 211.604 7.94411 206.239 14.258L206.03 14.4909L195.403 26.4975L189.725 20.8823C186.052 16.8197 180.713 14.2321 174.774 14.2321C174.435 14.2321 174.071 14.2321 173.732 14.258V24.4015C174.071 24.3757 174.435 24.3498 174.774 24.3498C177.639 24.3498 180.218 25.5142 182.067 27.4032L182.093 27.4291L188.709 34.0535L182.588 40.9107L182.354 41.1954C180.504 43.2914 177.769 44.5852 174.748 44.5852C174.383 44.5852 174.045 44.5593 173.706 44.5334V54.0818C174.045 54.1077 174.409 54.1077 174.748 54.1077C180.817 54.1077 186.261 51.4424 189.933 47.2246L189.959 47.1987L195.559 40.9883L206.213 51.6495L206.239 51.6753C211.604 57.9892 219.627 62 228.587 62C244.736 62 257.811 49.0101 257.811 32.9666C257.811 16.9232 244.736 3.93326 228.587 3.93326ZM228.587 52.0894C223.429 52.0894 218.741 50.071 215.303 46.8106L215.199 46.707C214.912 46.4224 214.6 46.1378 214.339 45.8272L205.613 36.8999L202.279 33.5101L209.859 25.0743L213.844 20.6495C214.105 20.3648 214.339 20.0802 214.626 19.7955L214.652 19.7697C218.168 16.1211 223.117 13.8439 228.587 13.8439C239.214 13.8439 247.835 22.409 247.835 32.9925C247.861 43.5242 239.24 52.0894 228.587 52.0894Z" fill="url(#paint0_linear_2_515)"/>
<path d="M297.871 30.586V55.0651H287.973V30.0426H287.947C287.687 26.4716 284.717 23.677 281.071 23.677C277.424 23.677 274.429 26.4716 274.195 30.0426H274.169V55.0651H264.271V30.586C264.271 23.8064 268.334 17.9842 274.169 15.3448C276.278 14.4132 278.623 13.8698 281.071 13.8698C283.519 13.8698 285.864 14.3873 287.973 15.3448C293.652 17.8807 297.663 23.4959 297.871 30.0426C297.871 30.2237 297.871 30.4049 297.871 30.586Z" fill="#1245EB"/>
<path d="M343.453 39.177C343.818 37.6762 344 36.0977 344 34.4934C344 32.9666 343.844 31.4917 343.505 30.0685C341.474 20.8306 333.191 13.8957 323.267 13.8957C313.343 13.8957 305.06 20.8047 303.028 30.0685C302.716 31.4917 302.534 32.9666 302.534 34.4934C302.534 36.0977 302.716 37.6762 303.081 39.177C303.315 40.1603 303.601 41.1177 303.992 42.0234C307.014 49.657 314.515 55.0651 323.293 55.0651C332.071 55.0651 339.546 49.657 342.594 42.0234H330.951C329.075 44.1453 326.34 45.465 323.293 45.465C320.245 45.465 317.51 44.1453 315.635 42.0234C314.88 41.1954 314.281 40.212 313.838 39.177H343.453ZM313.786 30.0685C315.296 26.3164 318.969 23.7029 323.267 23.7029C327.565 23.7029 331.237 26.3423 332.748 30.0685H313.786Z" fill="#1245EB"/>
<path d="M54.0992 9.39317V55.3498H44.2014V22.8231L36.8302 35.7095L36.2832 36.6411C35.1371 38.4266 33.4701 39.8756 31.4906 40.7296C30.1361 41.3506 28.6254 41.687 27.0105 41.687C25.4217 41.687 23.911 41.3506 22.5305 40.7296C20.5509 39.8498 18.8839 38.4007 17.7379 36.6152L17.243 35.7354L9.89778 22.8231V55.3498H0V9.39317C0 8.40987 0.234421 7.45244 0.65117 6.62439C1.66699 4.55427 3.82888 3.10519 6.32937 3.10519C7.65776 3.10519 8.88196 3.51922 9.89778 4.192C10.6271 4.68366 11.2522 5.33057 11.7211 6.08098L11.7471 6.10686L11.9815 6.49501L20.7593 21.8398L25.9947 30.9741C25.9947 31 26.0207 31 26.0207 31.0259C26.2291 31.3882 26.6198 31.6211 27.0887 31.6211C27.5575 31.6211 27.9482 31.3623 28.1566 31L33.392 21.8398L42.1958 6.44326C42.2739 6.31387 42.3521 6.18449 42.4302 6.05511C42.8991 5.30469 43.5242 4.65778 44.2535 4.16613C45.2693 3.46746 46.4935 3.07932 47.8219 3.07932C50.3224 3.07932 52.4843 4.5284 53.5001 6.59851C53.8648 7.47831 54.0992 8.40987 54.0992 9.39317Z" fill="#1245EB"/>
<path d="M161.516 10.5576C164.451 10.5576 166.83 8.1942 166.83 5.2788C166.83 2.3634 164.451 0 161.516 0C158.582 0 156.203 2.3634 156.203 5.2788C156.203 8.1942 158.582 10.5576 161.516 10.5576Z" fill="#1245EB"/>
</g>
<defs>
<linearGradient id="paint0_linear_2_515" x1="171.528" y1="32.9576" x2="246.637" y2="32.9576" gradientUnits="userSpaceOnUse">
<stop stop-color="#1245EB"/>
<stop offset="1" stop-color="#33FFF0"/>
</linearGradient>
<clipPath id="clip0_2_515">
<rect width="344" height="62" fill="white"/>
</clipPath>
</defs>
</svg>
